<?xml version="1.0" encoding="UTF-8" standalone="no"?>
<svg
   xmlns:dc="http://purl.org/dc/elements/1.1/"
   xmlns:cc="http://creativecommons.org/ns#"
   xmlns:rdf="http://www.w3.org/1999/02/22-rdf-syntax-ns#"
   xmlns:svg="http://www.w3.org/2000/svg"
   xmlns="http://www.w3.org/2000/svg"
   xmlns:sodipodi="http://sodipodi.sourceforge.net/DTD/sodipodi-0.dtd"
   xmlns:inkscape="http://www.inkscape.org/namespaces/inkscape"
   viewBox="-9 1 511 511.99902"
   version="1.1"
   id="svg4"
   sodipodi:docname="splash.svg"
   inkscape:version="0.92.4 (5da689c313, 2019-01-14)">
  <metadata
     id="metadata10">
    <rdf:RDF>
      <cc:Work
         rdf:about="">
        <dc:format>image/svg+xml</dc:format>
        <dc:type
           rdf:resource="http://purl.org/dc/dcmitype/StillImage" />
        <dc:title></dc:title>
      </cc:Work>
    </rdf:RDF>
  </metadata>
  <defs
     id="defs8" />
  <sodipodi:namedview
     pagecolor="#ffffff"
     bordercolor="#666666"
     borderopacity="1"
     objecttolerance="10"
     gridtolerance="10"
     guidetolerance="10"
     inkscape:pageopacity="0"
     inkscape:pageshadow="2"
     inkscape:window-width="1920"
     inkscape:window-height="1001"
     id="namedview6"
     showgrid="false"
     inkscape:zoom="1.3037306"
     inkscape:cx="325.75902"
     inkscape:cy="216.32427"
     inkscape:window-x="-9"
     inkscape:window-y="-9"
     inkscape:window-maximized="1"
     inkscape:current-layer="svg4" />
  <path
     d="m 239.54268,80.7419 c -0.19531,-18.01562 7.64454,-37.23828 20.52344,-50.12109 28.67969,-28.6718795 75.39063,-28.6249995 104.12891,0.11328 25.7539,25.75391 27.94531,64.00781 5.58594,97.44922 -5.03907,7.54297 -5.01954,16.35156 0.0508,21.42578 1.57422,1.57422 6.35937,6.35938 21.17578,2.83203 15.18359,-3.62109 31.93359,-1.42578 48.44922,6.34766 14.84765,6.98437 26.30468,16.79687 33.30468,23.79297 19.6836,19.6875 30.55079,45.8789 30.58985,73.75 0,0.0547 0,0.10156 0,0.15625 0,27.82812 -10.79688,53.94922 -30.41016,73.5625 -24.52344,24.52343 -57.83203,35.45703 -89.08984,29.25 -4.40235,-0.8711 -9.17578,0.49609 -12.16406,3.48437 -4.58985,4.59375 -4.9961,12.42578 -1.17188,22.65235 3.16797,8.46875 12.80469,34.24219 -5.78516,52.82812 -9,9 -22.16406,13.7461 -35.21875,12.69141 -10.59375,-0.85938 -20.80468,-6.27344 -27.3164,-14.48828 -5.21094,-6.56641 -7.99219,-12.41406 -10.22266,-17.11328 -0.33594,-0.70313 -0.66797,-1.39453 -1,-2.08594 -2.70703,-5.55469 -4.66015,-9.57032 -9.0039,-14.20313 -7.63672,-8.14844 -17.95313,-12.73437 -29.05469,-12.91015 -10.46485,-0.17188 -20.54688,3.80859 -27.66016,10.92187 -6.30859,6.30859 -9.9375,13.58203 -11.77734,23.58594 -0.37891,2.05859 -0.74219,4.14063 -1.10156,6.24219 -2.87893,16.70703 -6.14065,35.64844 -20.95315,50.45703 -13.89062,13.89062 -32.39062,21.52344 -52.09375,21.48828 -19.66016,-0.0352 -38.13672,-7.70703 -52.031249,-21.60156 -13.83594,-13.83985 -21.63281,-32.125 -21.9414,-51.49219 -0.30469,-19.55078 7.01171,-37.81641 20.6289,-51.4336 l 0.83203,-0.8164 c 3.375,-3.25781 9.26172,-8.6875 12.32032,-11.27344 1.636709,-1.38281 3.238279,-2.85547 4.753899,-4.37109 14.59766,-14.59766 21.26172,-33.01563 17.83203,-49.26563 -2.1289,-10.08203 -9.25781,-23.87109 -31.19922,-32.35547 l -0.85937,-0.33984 C 68.62472,271.77706 39.81612,260.64815 21.94894,242.78097 2.2653405,223.09737 -8.6018495,196.91768 -8.6487195,169.05831 v -0.17969 c 0,-27.82812 10.80469,-53.95312 30.4218695,-73.57031 C 41.577841,75.50362 67.183311,64.38643 93.870811,64.00362 120.85909,63.613 146.56222,74.19503 166.2419,93.79659 l 0.57032,0.58203 c 7.80468,8.07813 13.64843,14.03906 15.66406,15.96485 12.16015,11.6875 32.875,10.37109 46.17969,-2.9336 7.51953,-7.52344 11.0039,-15.98047 10.88671,-26.66797 z m 0,0"
     id="path2"
     inkscape:connector-curvature="0"
     style="stroke:none;fill:#fafaf0;fill-opacity:1" />
</svg>
